<svg width="25" height="24" viewBox="0 0 25 24" fill="none" xmlns="http://www.w3.org/2000/svg">
<path d="M12.3335 1.25C6.4035 1.25 1.5835 6.07 1.5835 12C1.5835 17.93 6.4035 22.75 12.3335 22.75C18.2635 22.75 23.0835 17.93 23.0835 12C23.0835 6.07 18.2635 1.25 12.3335 1.25ZM12.3335 21.25C7.2335 21.25 3.0835 17.1 3.0835 12C3.0835 6.9 7.2335 2.75 12.3335 2.75C17.4335 2.75 21.5835 6.9 21.5835 12C21.5835 17.1 17.4335 21.25 12.3335 21.25ZM17.0035 16.09C17.0035 16.46 16.7135 16.71 16.3935 16.71C16.2235 16.71 16.1235 16.66 15.9635 16.56C13.4435 15.04 10.5235 14.98 7.63348 15.57C7.47348 15.61 7.2735 15.67 7.1535 15.67C6.7635 15.67 6.51349 15.36 6.51349 15.03C6.51349 14.61 6.76351 14.42 7.06351 14.35C10.3635 13.62 13.7435 13.68 16.6235 15.41C16.8735 15.57 17.0135 15.71 17.0135 16.08L17.0035 16.09ZM18.2535 13.28C18.2535 13.72 17.9135 14.07 17.4735 14.07C17.2635 14.07 17.1235 13.98 16.9735 13.9C14.4535 12.41 10.6935 11.81 7.35349 12.71C7.16349 12.76 7.0535 12.81 6.8735 12.81C6.4435 12.81 6.09351 12.46 6.09351 12.03C6.09351 11.6 6.3035 11.31 6.7135 11.2C7.8335 10.89 8.9835 10.65 10.6535 10.65C13.2735 10.65 15.8035 11.3 17.7935 12.48C18.1235 12.67 18.2535 12.92 18.2535 13.27V13.28ZM19.6535 10.05C19.6535 10.6 19.2135 10.99 18.7135 10.99C18.5035 10.99 18.3735 10.94 18.1935 10.83C15.3235 9.12 10.1935 8.71 6.86349 9.63C6.71349 9.67 6.53351 9.73 6.34351 9.73C5.81351 9.73 5.4035 9.31 5.4035 8.78C5.4035 8.25 5.74348 7.92001 6.10349 7.82001C7.52349 7.40001 9.11351 7.21001 10.8435 7.21001C13.7835 7.21001 16.8735 7.82 19.1235 9.14C19.4335 9.32 19.6435 9.57 19.6435 10.05H19.6535Z" fill="white"/>
</svg>
