<svg width="25" height="24" viewBox="0 0 25 24" fill="none" xmlns="http://www.w3.org/2000/svg">
<path d="M22.0235 8.24966C21.9635 6.97966 21.7134 5.34966 20.3534 3.98966C18.9934 2.62966 17.3635 2.37966 16.0935 2.31966C14.5835 2.23966 10.0935 2.22966 8.59347 2.31966C7.32347 2.37966 5.69346 2.61966 4.33346 3.98966C2.97346 5.34966 2.72345 6.97966 2.66345 8.24966C2.57345 9.75966 2.57345 14.2497 2.66345 15.7497C2.72345 17.0197 2.96346 18.6497 4.33346 20.0197C5.70346 21.3797 7.33347 21.6297 8.59347 21.6897C9.35347 21.7297 10.8534 21.7497 12.3534 21.7497C13.8534 21.7497 15.3435 21.7297 16.0935 21.6897C17.3635 21.6297 18.9935 21.3897 20.3635 20.0197C21.7235 18.6597 21.9735 17.0297 22.0335 15.7597C22.1235 14.2497 22.1235 9.76965 22.0335 8.25965L22.0235 8.24966ZM20.5235 15.6697C20.4435 17.1797 20.0835 18.1597 19.2835 18.9497C18.4935 19.7397 17.5135 20.1096 16.0035 20.1796C14.5335 20.2596 10.1435 20.2596 8.65347 20.1796C7.15347 20.0996 6.17347 19.7297 5.37347 18.9397C4.58347 18.1497 4.21346 17.1697 4.14346 15.6597C4.06346 14.2197 4.06346 9.75965 4.14346 8.30965C4.22346 6.79965 4.58347 5.81966 5.37347 5.02966C6.16347 4.23966 7.15347 3.86966 8.65347 3.79966C9.39347 3.75966 10.8535 3.73966 12.3235 3.73966C13.7935 3.73966 15.2635 3.75966 16.0035 3.79966C17.5135 3.87966 18.4935 4.23965 19.2835 5.03965C20.0735 5.82965 20.4435 6.80966 20.5135 8.31966C20.5935 9.79966 20.5935 14.1897 20.5135 15.6697H20.5235ZM12.3335 7.24966C9.71346 7.24966 7.58346 9.37966 7.58346 11.9997C7.58346 14.6197 9.71346 16.7497 12.3335 16.7497C14.9535 16.7497 17.0835 14.6197 17.0835 11.9997C17.0835 9.37966 14.9535 7.24966 12.3335 7.24966ZM12.3335 15.2497C10.5435 15.2497 9.08346 13.7897 9.08346 11.9997C9.08346 10.2097 10.5435 8.74966 12.3335 8.74966C14.1235 8.74966 15.5835 10.2097 15.5835 11.9997C15.5835 13.7897 14.1235 15.2497 12.3335 15.2497ZM18.8534 6.49966C18.8534 7.04966 18.4035 7.49966 17.8534 7.49966C17.3034 7.49966 16.8534 7.04966 16.8534 6.49966C16.8534 5.94966 17.2934 5.49966 17.8534 5.49966C18.4035 5.49966 18.8534 5.94966 18.8534 6.49966Z" fill="white"/>
</svg>
