<svg width="25" height="24" viewBox="0 0 25 24" fill="none" xmlns="http://www.w3.org/2000/svg">
<path d="M20.8635 6.77977C20.7235 6.63977 20.5335 6.55977 20.3335 6.55977C19.5635 6.55977 18.6635 6.31977 18.1335 5.96977C17.3135 5.43977 16.7435 4.59977 16.5735 3.64977C16.5335 3.43976 16.5135 3.21977 16.5235 3.00977C16.5235 2.80977 16.4435 2.61977 16.3035 2.47977C16.1635 2.33977 15.9735 2.25977 15.7735 2.25977H12.6835C12.2735 2.25977 11.9335 2.59977 11.9335 3.00977V15.2998C11.9335 15.4898 11.9035 15.6798 11.8435 15.8598C11.6935 16.3398 11.3635 16.7298 10.9235 16.9598C10.4835 17.1898 9.97347 17.2398 9.49347 17.0898C9.01347 16.9398 8.62349 16.6098 8.39349 16.1698C8.16349 15.7298 8.1135 15.2198 8.2735 14.7398C8.4235 14.2598 8.75348 13.8698 9.19348 13.6398C9.63348 13.4098 10.1435 13.3598 10.6235 13.5098C10.8535 13.5798 11.1035 13.5398 11.2935 13.3998C11.4835 13.2598 11.6035 13.0298 11.6035 12.7998V9.63977C11.6035 9.26977 11.3235 8.94977 10.9535 8.89977C10.6635 8.85977 10.3635 8.83977 10.0635 8.83977C8.33348 8.83977 6.71347 9.50977 5.49347 10.7298C4.27347 11.9498 3.60351 13.5698 3.59351 15.2998C3.59351 18.8698 6.49347 21.7698 10.0535 21.7698C13.6135 21.7698 16.5235 18.8698 16.5235 15.3098V10.3198C17.6735 10.8498 19.0135 11.1498 20.3235 11.1498C20.7435 11.1498 21.0935 10.8198 21.0935 10.3998V7.32977C21.0935 7.12977 21.0135 6.93977 20.8735 6.79977L20.8635 6.77977ZM19.5835 9.59978C18.3435 9.46978 17.0935 9.03976 16.2035 8.39977C15.9735 8.23977 15.6735 8.20977 15.4235 8.33977C15.1735 8.46977 15.0135 8.72977 15.0135 9.00977V15.2898C15.0135 18.0298 12.7835 20.2498 10.0435 20.2498C7.30352 20.2498 5.0835 18.0198 5.0835 15.2798C5.0835 13.9498 5.60352 12.7098 6.54352 11.7698C7.48352 10.8298 8.72347 10.3198 10.0535 10.3198C10.0535 10.3198 10.0735 10.3198 10.0835 10.3198V11.9098C9.5535 11.8898 8.98352 12.0298 8.48352 12.2898C7.68352 12.7098 7.09349 13.4098 6.82349 14.2698C6.55349 15.1298 6.63347 16.0398 7.05347 16.8398C7.47347 17.6398 8.17351 18.2298 9.03351 18.4998C9.89351 18.7698 10.8035 18.6898 11.6035 18.2698C12.4035 17.8498 12.9935 17.1498 13.2635 16.2898C13.3635 15.9598 13.4235 15.6198 13.4235 15.2798V3.73978H15.0735C15.0735 3.79978 15.0935 3.84977 15.1035 3.90977C15.3535 5.26977 16.1735 6.46977 17.3235 7.21977C17.9135 7.60977 18.7535 7.88977 19.5935 7.99977V9.57977L19.5835 9.59978Z" fill="white"/>
</svg>
