<svg width="25" height="24" viewBox="0 0 25 24" fill="none" xmlns="http://www.w3.org/2000/svg">
<path d="M22.6435 6.99977C22.3435 5.87977 21.4635 4.99977 20.3435 4.69977C18.7335 4.26977 12.9835 4.25977 12.3335 4.25977C11.6835 4.25977 5.93349 4.26977 4.32349 4.69977C3.20349 4.99977 2.3235 5.87977 2.0235 6.99977C1.5835 8.63977 1.5835 11.8798 1.5835 12.0198C1.5835 12.1598 1.5835 15.3998 2.0235 17.0398C2.3135 18.1398 3.20349 19.0098 4.32349 19.3098C5.93349 19.7398 11.6835 19.7498 12.3335 19.7498C12.9835 19.7498 18.7335 19.7398 20.3435 19.3098C21.4635 19.0098 22.3535 18.1398 22.6435 17.0398C23.0835 15.3998 23.0835 12.1598 23.0835 12.0198C23.0835 11.8798 23.0835 8.63977 22.6435 6.99977ZM21.1935 16.6498C21.0335 17.2398 20.5735 17.6998 19.9535 17.8598C18.7535 18.1798 14.0435 18.2498 12.3335 18.2498C10.6235 18.2498 5.9135 18.1798 4.7135 17.8598C4.0935 17.6898 3.63351 17.2398 3.47351 16.6498C3.08351 15.1998 3.0835 12.0498 3.0835 12.0198C3.0835 11.9898 3.08351 8.83977 3.47351 7.38977C3.63351 6.78977 4.1135 6.30977 4.7135 6.14977C5.9135 5.82977 10.6235 5.75977 12.3335 5.75977C14.0435 5.75977 18.7535 5.82977 19.9535 6.14977C20.5535 6.30977 21.0335 6.78977 21.1935 7.38977C21.5835 8.83977 21.5835 11.9898 21.5835 12.0198C21.5835 12.0498 21.5835 15.1998 21.1935 16.6498ZM10.3335 8.99977L15.3335 11.9998L10.3335 14.9998V8.99977Z" fill="white"/>
</svg>
