<svg width="25" height="24" viewBox="0 0 25 24" fill="none" xmlns="http://www.w3.org/2000/svg">
<path d="M22.9135 5.42999C22.7435 5.21999 22.4835 5.13 22.2335 5.16C22.3335 4.96 22.4135 4.74999 22.4835 4.53999C22.5835 4.23999 22.4835 3.92 22.2435 3.72C22.0035 3.53 21.6635 3.5 21.3935 3.66C20.7835 4.02 20.1035 4.29001 19.4035 4.46001C18.5235 3.69001 17.3635 3.25 16.1735 3.25C13.5035 3.25 11.3235 5.39999 11.3235 8.03999C11.3235 8.06999 11.3235 8.1 11.3235 8.13C8.57347 7.77 6.05347 6.37999 4.30347 4.25999C4.14347 4.06999 3.90347 3.97001 3.66347 3.99001C3.42347 4.01001 3.20347 4.15 3.07347 4.36C2.63347 5.1 2.41347 5.92 2.41347 6.78C2.41347 7.54 2.59346 8.26999 2.92346 8.92999C2.86346 8.94999 2.80347 8.97999 2.75347 9.00999C2.52347 9.13999 2.38347 9.41999 2.38347 9.67999C2.38347 11.07 2.99347 12.35 3.99347 13.24C3.83347 13.44 3.77347 13.71 3.85347 13.95C4.27347 15.25 5.23347 16.28 6.44347 16.83C5.19347 17.39 3.77348 17.61 2.40348 17.45C2.05348 17.41 1.72347 17.62 1.61347 17.95C1.49347 18.28 1.62346 18.65 1.92346 18.83C3.91346 20.09 6.23346 20.76 8.62346 20.76C16.3935 20.76 21.0335 14.54 21.0335 8.52V8.36C21.7635 7.79 22.4035 7.11 22.9435 6.34C23.1335 6.07 23.1235 5.7 22.9135 5.44V5.42999ZM19.8335 7.38C19.6235 7.53 19.5035 7.77999 19.5235 8.03999C19.5335 8.19999 19.5335 8.34999 19.5335 8.50999C19.5335 13.79 15.4535 19.25 8.62346 19.25C7.50346 19.25 6.40347 19.08 5.35347 18.76C6.62347 18.47 7.81347 17.91 8.86347 17.1C9.11347 16.91 9.21347 16.57 9.11347 16.27C9.01347 15.97 8.73347 15.76 8.41347 15.75C7.38347 15.73 6.43347 15.25 5.83347 14.49C6.09347 14.46 6.35347 14.42 6.60347 14.35C6.94347 14.26 7.17347 13.95 7.16347 13.6C7.16347 13.25 6.90346 12.95 6.56346 12.88C5.39346 12.65 4.47347 11.83 4.08347 10.75C4.37347 10.81 4.66346 10.85 4.95346 10.86C5.33346 10.88 5.59347 10.66 5.69347 10.34C5.79347 10.02 5.67347 9.67 5.39347 9.48C4.46347 8.87 3.90348 7.85001 3.90348 6.74001C3.90348 6.52001 3.92347 6.3 3.96347 6.09C6.12347 8.22 9.03346 9.51 12.1235 9.67C12.3535 9.67 12.5835 9.59 12.7335 9.41C12.8835 9.23 12.9435 9 12.8935 8.77C12.8335 8.5 12.8135 8.24 12.8135 8C12.8135 6.19 14.3135 4.71001 16.1635 4.71001C17.1035 4.71001 17.9735 5.08 18.6135 5.75C18.7935 5.93 19.0435 6.02 19.2935 5.97C19.3435 5.97 19.3835 5.95 19.4335 5.94C19.2235 6.14 19.1535 6.44 19.2435 6.72C19.3435 7.03 19.6335 7.24001 19.9535 7.24001C19.9535 7.24001 19.8635 7.31 19.8135 7.34L19.8335 7.38Z" fill="white"/>
</svg>
