<svg width="25" height="24" viewBox="0 0 25 24" fill="none" xmlns="http://www.w3.org/2000/svg">
<path d="M22.0334 5.50985C22.0034 5.36985 21.9334 4.93986 21.5334 4.60986C21.1034 4.25986 20.5634 4.23986 20.4034 4.24986C19.6634 4.25986 18.8234 4.53986 13.9434 6.57986C12.3434 7.24986 9.08343 8.65986 4.27343 10.7699C3.53343 11.0699 2.68343 11.5099 2.58343 12.2899C2.44343 13.4199 3.59343 13.7799 4.52343 14.0799L4.88341 14.1899C5.60341 14.4299 6.92342 14.8199 7.67342 14.8399C8.38342 14.8599 9.11341 14.5899 9.91341 14.0399C11.1134 13.2299 12.1034 12.5599 12.9334 11.9999C12.8034 12.1199 12.6834 12.2399 12.5834 12.3299C12.1634 12.7299 11.8634 13.0099 11.8034 13.0699C11.6834 13.1999 11.5534 13.3199 11.4334 13.4399C10.8834 13.9699 10.3234 14.5199 10.3934 15.3099C10.4634 16.0599 11.1034 16.5599 11.5734 16.8699C12.2534 17.3199 12.8034 17.6999 13.3434 18.0699C13.9234 18.4699 14.5134 18.8699 15.2734 19.3699C15.4634 19.4899 15.6334 19.6199 15.8134 19.7399C16.5034 20.2399 17.2234 20.7499 18.1534 20.7499C18.2334 20.7499 18.3034 20.7499 18.3834 20.7399C19.0234 20.6799 19.8534 20.2299 20.1834 18.4199C20.7134 15.5699 21.8134 9.10986 22.0734 6.37986C22.1034 6.06986 22.0734 5.69986 22.0434 5.51986L22.0334 5.50985ZM20.5734 6.22985C20.3234 8.88985 19.2134 15.4099 18.7034 18.1499C18.5434 19.0399 18.2834 19.2399 18.2434 19.2499C17.7934 19.2799 17.3534 18.9999 16.6834 18.5199C16.4934 18.3899 16.3034 18.2499 16.1034 18.1099C15.3534 17.6199 14.7734 17.2199 14.2034 16.8199C13.6534 16.4399 13.1034 16.0699 12.4134 15.6099C11.9934 15.3299 11.9134 15.1799 11.8934 15.1799C11.9334 15.0399 12.2634 14.7199 12.4834 14.5099C12.6134 14.3799 12.7534 14.2499 12.8934 14.0999C12.9534 14.0299 13.2334 13.7799 13.6134 13.4199C17.5334 9.75986 17.5734 9.58985 17.6434 9.25985C17.7034 8.96985 17.6634 8.52986 17.3334 8.24986C16.9534 7.89986 16.4734 7.99985 16.3234 8.03985C16.1034 8.08985 15.9734 8.11986 9.07342 12.7999C8.55342 13.1599 8.12343 13.3599 7.71343 13.3299C7.32343 13.3299 6.41342 13.0999 5.35342 12.7499L4.98342 12.6299C4.76342 12.5599 4.50342 12.4799 4.29342 12.3999C4.41342 12.3299 4.59344 12.2499 4.84344 12.1499C4.84344 12.1499 4.85343 12.1499 4.86343 12.1499C9.67342 10.0499 12.9134 8.63986 14.5134 7.96986C18.6934 6.21986 19.9134 5.76985 20.4234 5.75985C20.4234 5.75985 20.5334 5.76986 20.5434 5.76986C20.5634 5.87986 20.5734 6.09986 20.5634 6.23986L20.5734 6.22985Z" fill="white"/>
</svg>
